<svg width="30" height="30" viewBox="0 0 30 30" fill="none" xmlns="http://www.w3.org/2000/svg">
<g clip-path="url(#clip0_1_1165)">
<path d="M0 3.28125C0 1.46906 1.46907 0 3.28125 0H26.7188C28.5309 0 30 1.46907 30 3.28125V26.7188C30 28.5309 28.5309 30 26.7188 30H3.28125C1.46906 30 0 28.5309 0 26.7188V3.28125ZM3.28125 2.8125C3.02237 2.8125 2.8125 3.02237 2.8125 3.28125V26.7188C2.8125 26.9777 3.02237 27.1875 3.28125 27.1875H26.7188C26.9777 27.1875 27.1875 26.9777 27.1875 26.7188V3.28125C27.1875 3.02237 26.9777 2.8125 26.7188 2.8125H3.28125ZM7.94289 6.1836C8.49131 5.97754 9.11003 6.13307 9.49581 6.57398L20.1562 18.7573V7.5C20.1562 6.72336 20.7859 6.09375 21.5625 6.09375C22.3391 6.09375 22.9688 6.72336 22.9688 7.5V22.5C22.9688 23.0859 22.6056 23.6104 22.0571 23.8164C21.5087 24.0225 20.8899 23.8669 20.5042 23.4261L9.84375 11.2427V22.5C9.84375 23.2766 9.21414 23.9062 8.4375 23.9062C7.66086 23.9062 7.03125 23.2766 7.03125 22.5V7.5C7.03125 6.91414 7.39446 6.38966 7.94289 6.1836Z" fill="#191A25"/>
</g>
<defs>
<clipPath id="clip0_1_1165">
<rect width="30" height="30" fill="white"/>
</clipPath>
</defs>
</svg>
