<svg width="25" height="24" viewBox="0 0 25 24" fill="none" xmlns="http://www.w3.org/2000/svg">
<path d="M10.768 21C10.9435 21.304 11.196 21.5565 11.5 21.732C11.8041 21.9075 12.1489 21.9999 12.5 21.9999C12.8511 21.9999 13.1959 21.9075 13.5 21.732C13.804 21.5565 14.0565 21.304 14.232 21" stroke="#97999A" stroke-width="2" stroke-linecap="round" stroke-linejoin="round"/>
<path d="M3.762 15.326C3.63137 15.4692 3.54516 15.6472 3.51386 15.8385C3.48256 16.0298 3.50752 16.226 3.58571 16.4034C3.6639 16.5807 3.79194 16.7316 3.95426 16.8375C4.11658 16.9434 4.30618 16.9999 4.5 17H20.5C20.6938 17.0001 20.8834 16.9438 21.0459 16.8381C21.2083 16.7324 21.3365 16.5817 21.4149 16.4045C21.4933 16.2273 21.5185 16.0311 21.4874 15.8398C21.4564 15.6485 21.3704 15.4703 21.24 15.327C19.91 13.956 18.5 12.499 18.5 8C18.5 6.4087 17.8679 4.88258 16.7426 3.75736C15.6174 2.63214 14.0913 2 12.5 2C10.9087 2 9.38258 2.63214 8.25736 3.75736C7.13214 4.88258 6.5 6.4087 6.5 8C6.5 12.499 5.089 13.956 3.762 15.326Z" stroke="#97999A" stroke-width="2" stroke-linecap="round" stroke-linejoin="round"/>
</svg>
